<svg width="15" height="20" viewBox="0 0 15 20" fill="none" xmlns="http://www.w3.org/2000/svg">
<path fill-rule="evenodd" clip-rule="evenodd" d="M0.823532 3.74189C0.823532 1.6753 2.45365 0 4.4645 0H10.712C12.7228 0 14.3529 1.6753 14.3529 3.74189C14.3529 5.05048 13.6993 6.20217 12.7093 6.87099C13.6993 7.5398 14.3529 8.69149 14.3529 10.0001C14.3529 12.0667 12.7228 13.742 10.712 13.742H10.6329C9.69019 13.742 8.83117 13.3738 8.18455 12.7697V16.2175C8.18455 18.3116 6.51184 20 4.48415 20C2.47829 20 0.823532 18.3298 0.823532 16.2581C0.823532 14.9496 1.47708 13.7979 2.46701 13.1291C1.47708 12.4603 0.823532 11.3086 0.823532 10.0001C0.823532 8.69149 1.47713 7.5398 2.46713 6.87099C1.47713 6.20217 0.823532 5.05048 0.823532 3.74189ZM6.99192 7.48388H4.4645C3.11232 7.48388 2.01617 8.61041 2.01617 10.0001C2.01617 11.3845 3.10399 12.5077 4.44908 12.5162C4.45421 12.5162 4.45936 12.5162 4.4645 12.5162H6.99192V7.48388ZM8.18456 10.0001C8.18456 11.3897 9.28071 12.5163 10.6329 12.5163H10.712C12.0642 12.5163 13.1603 11.3897 13.1603 10.0001C13.1603 8.61041 12.0642 7.48388 10.712 7.48388H10.6329C9.28071 7.48388 8.18456 8.61041 8.18456 10.0001ZM4.4645 13.742C4.45936 13.742 4.45422 13.742 4.44908 13.7419C3.104 13.7505 2.01617 14.8737 2.01617 16.2581C2.01617 17.6426 3.12697 18.7743 4.48415 18.7743C5.86316 18.7743 6.99192 17.6244 6.99192 16.2175V13.742H4.4645ZM4.4645 1.22569H6.99192V6.2581H4.4645C3.11232 6.2581 2.01617 5.13156 2.01617 3.74189C2.01617 2.35224 3.11232 1.22569 4.4645 1.22569ZM8.18456 6.2581V1.22569H10.712C12.0642 1.22569 13.1603 2.35224 13.1603 3.74189C13.1603 5.13156 12.0642 6.2581 10.712 6.2581H8.18456Z" fill="#3F4150"/>
</svg>
