<svg width="105" height="24" viewBox="0 0 105 24" fill="none" xmlns="http://www.w3.org/2000/svg">
<g clip-path="url(#clip0_3_41545)">
<path d="M7.98539 22.1847C4.21524 22.1847 1.33524 19.4356 1.33524 14.7491C1.33524 9.984 4.52942 7.26109 8.16866 7.26109C10.0276 7.26109 11.3367 8.02037 12.3316 8.93673L11.1272 10.5076C10.2894 9.74837 9.39921 9.25091 8.29957 9.25091C5.68142 9.25091 3.79633 11.4502 3.79633 14.7491C3.79633 17.9956 5.60287 20.1949 8.22102 20.1949C9.50393 20.1949 10.6821 19.5665 11.5723 18.7811L12.5934 20.3782C11.3367 21.504 9.68721 22.1847 7.98539 22.1847Z" fill="black"/>
<path d="M20.3275 22.1847C16.8191 22.1847 13.7297 19.4356 13.7297 14.7491C13.7297 9.984 16.8191 7.26109 20.3275 7.26109C23.8097 7.26109 26.8991 9.984 26.8991 14.7491C26.8991 19.4356 23.8097 22.1847 20.3275 22.1847ZM20.3275 20.1949C22.7886 20.1949 24.438 17.9956 24.438 14.7491C24.438 11.4502 22.7886 9.25091 20.3275 9.25091C17.8402 9.25091 16.1908 11.4502 16.1908 14.7491C16.1908 17.9956 17.8402 20.1949 20.3275 20.1949Z" fill="black"/>
<path d="M32.4918 21.8182L28.5121 7.60146H30.9471L33.094 15.8487C33.382 17.2102 33.6438 18.4669 33.9056 19.8022H34.0365C34.3507 18.4669 34.6387 17.184 35.0052 15.8487L37.2045 7.60146H39.5347L41.7863 15.8487C42.1267 17.2102 42.4409 18.4669 42.7812 19.8022H42.886C43.174 18.4669 43.4358 17.2102 43.7761 15.8487L45.8445 7.60146H48.1223L44.2998 21.8182H41.3936L39.3252 14.1731C38.9587 12.8116 38.6969 11.5287 38.3565 10.0625H38.2256C37.9376 11.5287 37.6496 12.8378 37.2569 14.1993L35.2671 21.8182H32.4918Z" fill="black"/>
<path d="M53.8846 22.1847C51.502 22.1847 49.7217 20.6924 49.7217 18.1265C49.7217 15.0371 52.3922 13.4924 58.4402 12.8116C58.4402 10.9789 57.8642 9.22473 55.534 9.22473C53.8584 9.22473 52.366 10.0102 51.2664 10.7695L50.3239 9.09382C51.6329 8.256 53.6228 7.26109 55.9006 7.26109C59.3828 7.26109 60.8489 9.56509 60.8489 13.0996V21.8182H58.8853L58.6759 20.1425H58.5711C57.2359 21.2684 55.6388 22.1847 53.8846 22.1847ZM54.5391 20.2473C55.9268 20.2473 57.0788 19.5927 58.4402 18.3622V14.4087C53.649 14.9585 52.0519 16.1367 52.0519 17.9695C52.0519 19.5927 53.1515 20.2473 54.5391 20.2473Z" fill="black"/>
<path d="M65.1029 21.8182V7.60146H67.0404L67.276 10.1935H67.3545C68.3233 8.38691 69.7895 7.26109 71.3865 7.26109C72.0149 7.26109 72.4338 7.33964 72.9047 7.54909L72.46 9.64364C71.9625 9.48655 71.6484 9.408 71.0724 9.408C69.8942 9.408 68.428 10.272 67.4855 12.7069V21.8182H65.1029Z" fill="black"/>
<path d="M79.4509 22.1847C75.8902 22.1847 73.5862 19.488 73.5862 14.7491C73.5862 10.1149 76.5185 7.26109 79.7651 7.26109C81.4145 7.26109 82.5142 7.86328 83.7447 8.91055L83.64 6.44946V1.00364H86.0225V21.8182H84.0589L83.8495 20.1425H83.7971C82.6713 21.2684 81.1789 22.1847 79.4509 22.1847ZM79.9745 20.1687C81.3098 20.1687 82.4618 19.5142 83.64 18.2313V10.7695C82.4356 9.66982 81.336 9.25091 80.1578 9.25091C77.88 9.25091 76.0735 11.4764 76.0735 14.7229C76.0735 18.1265 77.4873 20.1687 79.9745 20.1687Z" fill="black"/>
<path fill-rule="evenodd" clip-rule="evenodd" d="M13.313 8.85192L11.2239 11.5768L10.6388 11.0465C9.87353 10.353 9.15033 9.97818 8.29956 9.97818C7.2098 9.97818 6.28804 10.4294 5.62578 11.2273C4.95589 12.0345 4.52359 13.2345 4.52359 14.7491C4.52359 16.2424 4.93892 17.4304 5.5906 18.23C6.233 19.0181 7.1331 19.4676 8.22102 19.4676C9.26771 19.4676 10.2817 18.95 11.0911 18.2358L11.7277 17.674L13.5392 20.5073L13.0787 20.9199C11.6988 22.156 9.87964 22.912 7.98538 22.912C5.91751 22.912 4.05636 22.1543 2.71546 20.7213C1.37647 19.2903 0.607956 17.2426 0.607956 14.7491C0.607956 12.1981 1.46658 10.136 2.86834 8.70858C4.26666 7.28472 6.16578 6.53382 8.16866 6.53382C10.2556 6.53382 11.7328 7.39651 12.8243 8.40181L13.313 8.85192ZM12.3316 8.93672L11.1272 10.5076C10.9427 10.3404 10.7556 10.1859 10.5643 10.0465C9.88713 9.55338 9.15702 9.25091 8.29956 9.25091C5.68141 9.25091 3.79632 11.4502 3.79632 14.7491C3.79632 17.9956 5.60287 20.1949 8.22102 20.1949C9.24466 20.1949 10.2016 19.7949 10.9988 19.2342C11.2007 19.0921 11.3924 18.9399 11.5723 18.7811L12.5934 20.3782C11.3367 21.504 9.6872 22.1847 7.98538 22.1847C4.21523 22.1847 1.33523 19.4356 1.33523 14.7491C1.33523 9.984 4.52941 7.26109 8.16866 7.26109C10.0276 7.26109 11.3367 8.02036 12.3316 8.93672ZM20.3275 22.912C16.3836 22.912 13.0024 19.8025 13.0024 14.7491C13.0024 9.61891 16.3818 6.53382 20.3275 6.53382C24.2487 6.53382 27.6264 9.6208 27.6264 14.7491C27.6264 19.8007 24.247 22.912 20.3275 22.912ZM22.7248 18.2519C23.327 17.4525 23.7108 16.257 23.7108 14.7491C23.7108 13.2127 23.3259 12.0039 22.7233 11.1986C22.1334 10.4102 21.3169 9.97818 20.3275 9.97818C19.3224 9.97818 18.4997 10.4124 17.9077 11.1999C17.3029 12.0045 16.918 13.2126 16.918 14.7491C16.918 16.2571 17.3017 17.4519 17.9063 18.2505C18.4985 19.0329 19.322 19.4676 20.3275 19.4676C21.3174 19.4676 22.1346 19.0351 22.7248 18.2519ZM31.9401 22.5455L27.5534 6.87418H31.5092L33.802 15.6817L33.8055 15.6982C33.8793 16.047 33.9513 16.389 34.0223 16.7275C34.1116 16.3738 34.2047 16.018 34.3033 15.6587L34.3039 15.6562L36.6457 6.87418H40.09L42.49 15.6647L42.4919 15.6724C42.5922 16.0737 42.6903 16.4658 42.7873 16.8535C42.8767 16.466 42.9703 16.0736 43.0706 15.6724L45.2771 6.87418H49.071L44.8574 22.5455H40.8369L38.623 14.3622C38.5089 13.9383 38.4044 13.5201 38.3046 13.1025C38.1975 13.5308 38.0831 13.9585 37.9583 14.392L35.8288 22.5455H31.9401ZM37.2569 14.1993C37.5187 13.2918 37.7339 12.4075 37.9337 11.4844C38.0314 11.0328 38.1254 10.5719 38.2193 10.0944C38.2215 10.0838 38.2236 10.0732 38.2256 10.0625H38.3565C38.3586 10.0716 38.3607 10.0805 38.3628 10.0895C38.4627 10.5204 38.5559 10.9355 38.647 11.3416C38.6575 11.3881 38.6679 11.4346 38.6783 11.4809C38.8836 12.3951 39.0812 13.2666 39.3252 14.1731L41.3936 21.8182H44.2998L48.1223 7.60145H45.8445L43.7761 15.8487C43.5545 16.7351 43.3663 17.5771 43.1823 18.4253C43.1241 18.6942 43.0662 18.9637 43.0079 19.2355C42.9695 19.4139 42.9311 19.5932 42.8921 19.774C42.89 19.7833 42.888 19.7927 42.886 19.8022H42.7812C42.7792 19.7942 42.7772 19.7863 42.7751 19.7783C42.6596 19.3249 42.5471 18.8806 42.4355 18.438C42.2205 17.5855 42.009 16.7396 41.7863 15.8487L39.5347 7.60145H37.2045L35.0052 15.8487C34.7689 16.7096 34.5653 17.5487 34.3662 18.394C34.3102 18.632 34.2545 18.8704 34.1985 19.11C34.1471 19.3306 34.0953 19.5522 34.0428 19.7753C34.0407 19.7842 34.0386 19.7932 34.0365 19.8022H33.9056C33.9035 19.7914 33.9014 19.7807 33.8993 19.7699C33.8072 19.3006 33.7151 18.8409 33.6217 18.3827C33.452 17.5489 33.2783 16.7203 33.094 15.8487L30.9471 7.60145H28.5121L32.4918 21.8182H35.2671L37.2569 14.1993ZM50.3239 9.09381C51.6329 8.256 53.6228 7.26109 55.9006 7.26109C59.3828 7.26109 60.8489 9.56509 60.8489 13.0996V21.8182H58.8853L58.6759 20.1425H58.5711C58.5651 20.1477 58.559 20.1528 58.5529 20.1579C58.3732 20.3089 58.1887 20.4561 57.9999 20.5977C56.7892 21.5052 55.3951 22.1847 53.8846 22.1847C51.502 22.1847 49.7217 20.6924 49.7217 18.1265C49.7217 15.0371 52.3922 13.4924 58.4402 12.8116C58.4402 10.9789 57.8642 9.22472 55.534 9.22472C54.1513 9.22472 52.8934 9.75956 51.878 10.3732C51.6628 10.5032 51.4586 10.6367 51.2664 10.7695L50.3239 9.09381ZM57.6841 12.1702C57.6283 11.5869 57.4896 11.0929 57.2517 10.7281C56.9672 10.2917 56.4852 9.952 55.534 9.952C54.0785 9.952 52.7356 10.6388 51.6796 11.3679L51.0235 11.821L49.3532 8.85156L49.9319 8.48123C51.2881 7.61316 53.4193 6.53382 55.9006 6.53382C57.8155 6.53382 59.2844 7.17675 60.2519 8.40487C61.1951 9.60211 61.5762 11.2491 61.5762 13.0996V22.5455H58.2433L58.1027 21.4207C56.8905 22.2658 55.4635 22.912 53.8846 22.912C52.543 22.912 51.3137 22.4903 50.4133 21.6493C49.506 20.802 48.9944 19.5864 48.9944 18.1265C48.9944 17.2455 49.1861 16.439 49.6056 15.7214C50.0239 15.006 50.6439 14.4209 51.4377 13.9428C52.8837 13.0719 54.9684 12.5196 57.6841 12.1702ZM57.7129 18.0348C56.5177 19.0705 55.5886 19.52 54.5391 19.52C53.9466 19.52 53.5103 19.3788 53.2354 19.154C52.9848 18.9491 52.7791 18.6029 52.7791 17.9695C52.7791 17.6216 52.8534 17.3372 53.0009 17.0896C53.1505 16.8388 53.4014 16.5821 53.8205 16.3335C54.5791 15.8832 55.81 15.5046 57.7129 15.2348V18.0348ZM57.7129 14.5004C53.486 15.0839 52.0519 16.2328 52.0519 17.9695C52.0519 19.5927 53.1515 20.2473 54.5391 20.2473C55.9268 20.2473 57.0788 19.5927 58.4402 18.3622V14.4087C58.1891 14.4375 57.9468 14.4681 57.7129 14.5004ZM64.3756 22.5455V6.87418H67.7045L67.8302 8.25636C68.7978 7.19925 70.0204 6.53382 71.3865 6.53382C72.0935 6.53382 72.6172 6.62527 73.2007 6.8845L73.7389 7.12383L73.0051 10.5784L72.2409 10.3372C71.784 10.1929 71.5478 10.1353 71.0724 10.1353C70.306 10.1353 69.084 10.6905 68.2127 12.8455V22.5455H64.3756ZM67.4855 12.7069C68.428 10.272 69.8942 9.408 71.0724 9.408C71.3423 9.408 71.5548 9.42523 71.7556 9.45978C71.9831 9.49891 72.1957 9.56014 72.46 9.64363L72.9047 7.54909C72.4338 7.33963 72.0149 7.26109 71.3865 7.26109C70.0769 7.26109 68.8553 8.01811 67.9238 9.28669C67.7209 9.56305 67.5318 9.86363 67.3585 10.186C67.3572 10.1884 67.3559 10.191 67.3545 10.1935H67.276L67.0404 7.60145H65.1029V21.8182H67.4855V12.7069ZM82.9127 6.46492V0.27636H86.7498V22.5455H83.4174L83.2916 21.5414C82.2291 22.3313 80.9302 22.912 79.4509 22.912C77.4705 22.912 75.7884 22.1532 74.6175 20.7004C73.4611 19.2661 72.8589 17.2273 72.8589 14.7491C72.8589 9.80254 76.0335 6.53382 79.7651 6.53382C81.0458 6.53382 82.0385 6.8624 82.9534 7.42232L82.9127 6.46492ZM83.7447 8.91054L83.64 6.44945V1.00363H86.0225V21.8182H84.0589L83.8495 20.1425H83.7971C83.7949 20.145 83.792 20.1476 83.7898 20.15C83.5993 20.3404 83.3978 20.5248 83.1862 20.6997C82.1527 21.5557 80.8829 22.1847 79.4509 22.1847C75.8902 22.1847 73.5862 19.488 73.5862 14.7491C73.5862 10.1149 76.5185 7.26109 79.7651 7.26109C81.0735 7.26109 82.0356 7.63985 82.992 8.31898C83.2415 8.49621 83.4902 8.69381 83.7447 8.91054ZM83.64 18.2313V10.7695C82.4356 9.66981 81.336 9.25091 80.1578 9.25091C77.88 9.25091 76.0735 11.4764 76.0735 14.7229C76.0735 18.1265 77.4873 20.1687 79.9745 20.1687C81.3098 20.1687 82.4618 19.5142 83.64 18.2313ZM79.9745 19.4415C80.968 19.4415 81.888 18.9967 82.9127 17.9423V11.0985C81.9193 10.2611 81.0545 9.97818 80.1578 9.97818C78.4509 9.97818 76.8007 11.6853 76.8007 14.7229C76.8007 16.3385 77.1389 17.5321 77.6844 18.3012C78.208 19.0385 78.9585 19.4415 79.9745 19.4415ZM13.7297 14.7491C13.7297 19.4356 16.8191 22.1847 20.3275 22.1847C23.8097 22.1847 26.8991 19.4356 26.8991 14.7491C26.8991 9.984 23.8097 7.26109 20.3275 7.26109C16.8191 7.26109 13.7297 9.984 13.7297 14.7491ZM24.438 14.7491C24.438 17.9956 22.7886 20.1949 20.3275 20.1949C17.8402 20.1949 16.1908 17.9956 16.1908 14.7491C16.1908 11.4502 17.8402 9.25091 20.3275 9.25091C22.7886 9.25091 24.438 11.4502 24.438 14.7491Z" fill="black"/>
<path d="M104.727 7.81818C104.727 11.0315 102.122 13.6364 98.9091 13.6364C95.696 13.6364 93.0909 11.0315 93.0909 7.81818C93.0909 4.60489 95.696 2 98.9091 2C102.122 2 104.727 4.60489 104.727 7.81818Z" fill="#028AE2"/>
<path fill-rule="evenodd" clip-rule="evenodd" d="M103.774 19.9116C104.377 18.9952 104.727 17.8983 104.727 16.7195C104.727 13.5062 102.122 10.9013 98.9091 10.9013C95.696 10.9013 93.0909 13.5062 93.0909 16.7195C93.0909 19.1701 94.6063 21.267 96.7509 22.1242C96.5374 22.2716 96.2501 22.4185 95.9193 22.5516C95.4284 22.7487 94.8945 22.8948 94.4858 22.963C94.3047 22.9932 94.1745 23.1532 94.1818 23.3364C94.1898 23.5196 94.3323 23.6687 94.5149 23.6841C97.8232 23.9632 101.865 23.1115 103.774 19.9116Z" fill="#FFCC29" fill-opacity="0.8"/>
</g>
<defs>
<clipPath id="clip0_3_41545">
<rect width="104.727" height="24" fill="white"/>
</clipPath>
</defs>
</svg>
